# xmcd
# 
# Track frame offsets:
#     150
#     18850
#     38225
#     56962
# 
# Disc length: 1019
# 
# Revision: 7
# Processed by: cddbd v1.5.2PL0 Copyright (c) Steve Scherf et al.
# Submitted via: fre:ac v1.1beta1pre5
# 
DISCID=2d03f904
DTITLE=大手町梨稟（CV:楠木ともり） - Passionate Journey
DYEAR=2018
DGENRE=Pop
TTITLE0=Passionate Journey
TTITLE1=願いキラキラきらり
TTITLE2=Passionate Journey (Instrumental)
TTITLE3=願いキラキラきらり (Instrumental)
EXTD=
EXTT0=
EXTT1=
EXTT2=
EXTT3=
PLAYORDER=
